PathFileType	4	(X/Y/Z)	walk-thru1-2-TP.trc
DataRate	CameraRate	NumFrames	NumMarkers	Units	OrigDataRate	OrigDataStartFrame	OrigNumFrames
120.00	120.00	       4	60	mm	120.00	386	       441
Frame#	Time	Top.Head			Front.Head			Rear.Head			Jaw			C7			R.Clavicle			L.Clavicle			R.Shoulder			L.Shoulder			R.Scapula			L.Scapula			R.Scap.Inf			R.Biceps.Lateral			R.Elbow			R.Elbow.Medial			R.Forearm			R.Ulna			R.Radius			R.Wrist			R.Thumb.M1			R.Thumb.M2			R.Thumb.M3			R.Finger3.M1			R.Finger3.M2			R.Finger3.M3			L.Biceps.Lateral			L.Elbow			L.Elbow.Medial			L.Forearm			L.Ulna			L.Radius			L.Wrist			L.Thumb.M1			L.Thumb.M2			L.Thumb.M3			L.Finger3.M1			L.Finger3.M2			L.Finger3.M3			V.Sacral			R.ASIS			L.ASIS			R.Thigh			R.Thigh.Front			R.Knee			R.Knee.Medial			R.Shank			R.Ankle			R.Ankle.Medial			R.Heel			R.Toe			R.MedFoot			L.Thigh			L.Knee			L.Knee.Medial			L.Shank			L.Ankle			L.Ankle.Medial			L.Heel			L.Toe			L.MedFoot			V_mid_ASIS			V_R_Knee_JC			V_L_Knee_JC			V_R_Elbow_JC			V_L_Elbow_JC			V_R_Ankle_JC			V_L_Ankle_JC			V_R_Wrist_JC			V_L_Wrist_JC			V_R_ScaTrpz_1stMC_JC			V_R_1stMC_1stPP_JC			V_R_1stPP_1stDP_JC			V_R_LunCap_3rdMC_JC			V_R_3rdMC_3rdPP_JC			V_R_3rdPP_3rdMP_JC			V_R_3rdMP_3rdDP_JC			V_L_ScaTrpz_1stMC_JC			V_L_1stMC_1stPP_JC			V_L_1stPP_1stDP_JC			V_L_LunCap_3rdMC_JC			V_L_3rdMC_3rdPP_JC			V_L_3rdPP_3rdMP_JC			V_L_3rdMP_3rdPP_JC			V_ROOT_JC			V_R_Hip_JC			V_L_Hip_JC			V_R_GlenHum_JC			V_L_GlenHum_JC			V_ForeHead_Ctr			V_Vertex			V_Sagit_Lambdoid_Suture			V_R_FrontoTemp			V_L_FrontoTemporal			V_R_ParietalOccip			V_L_ParietalOcciptal			V_R_Temporal			V_L_Temporal			V_mid_FrontRearHead			V_mid_RLGlenHumCtrs			V_C7_vert			V_C1_vert			V_Mid_Hip			
		X1	Y1	Z1	X2	Y2	Z2	X3	Y3	Z3	X4	Y4	Z4	X5	Y5	Z5	X6	Y6	Z6	X7	Y7	Z7	X8	Y8	Z8	X9	Y9	Z9	X10	Y10	Z10	X11	Y11	Z11	X12	Y12	Z12	X13	Y13	Z13	X14	Y14	Z14	X15	Y15	Z15	X16	Y16	Z16	X17	Y17	Z17	X18	Y18	Z18	X19	Y19	Z19	X20	Y20	Z20	X21	Y21	Z21	X22	Y22	Z22	X23	Y23	Z23	X24	Y24	Z24	X25	Y25	Z25	X26	Y26	Z26	X27	Y27	Z27	X28	Y28	Z28	X29	Y29	Z29	X30	Y30	Z30	X31	Y31	Z31	X32	Y32	Z32	X33	Y33	Z33	X34	Y34	Z34	X35	Y35	Z35	X36	Y36	Z36	X37	Y37	Z37	X38	Y38	Z38	X39	Y39	Z39	X40	Y40	Z40	X41	Y41	Z41	X42	Y42	Z42	X43	Y43	Z43	X44	Y44	Z44	X45	Y45	Z45	X46	Y46	Z46	X47	Y47	Z47	X48	Y48	Z48	X49	Y49	Z49	X50	Y50	Z50	X51	Y51	Z51	X52	Y52	Z52	X53	Y53	Z53	X54	Y54	Z54	X55	Y55	Z55	X56	Y56	Z56	X57	Y57	Z57	X58	Y58	Z58	X59	Y59	Z59	X60	Y60	Z60	

386	3.208	1033.15918	65.65910	1566.47498	1136.59973	59.23143	1469.25415	923.98865	65.60026	1482.47253	1110.33057	43.20049	1328.05774	909.04718	46.71684	1370.93530	993.47601	-64.86255	1285.78711	1011.55316	148.81728	1291.80200	942.97357	-141.62686	1281.63184	962.43652	242.01375	1289.06116	863.40021	-37.81656	1294.44189	865.11255	142.79512	1292.56165	818.78467	-23.19871	1210.87390	963.29712	-193.87570	1140.45837	928.25403	-211.59636	978.19666	896.05762	-141.55553	965.10492	1002.41461	-200.36653	900.77032	971.26758	-227.31612	816.52197	1031.33154	-176.73013	767.13354	1029.94543	-217.03905	733.53540	1054.03625	-176.72058	712.25763	1060.27625	-158.54906	677.56744	1061.32031	-147.29721	636.97723	1043.93518	-228.85744	657.29443	1038.18799	-210.28770	606.00446	1019.92761	-190.88777	574.52448	954.53662	307.03488	1145.47229	917.52478	322.77234	998.92932	894.64771	245.04393	986.96539	1007.84918	301.95700	944.43066	1010.74805	338.38715	852.71466	1063.50867	277.27554	818.24469	1078.64233	324.03717	793.28857	1101.16016	280.83060	788.00763	1111.30029	256.20584	752.24023	1122.29236	242.76457	703.15912	1117.66235	319.49576	712.47217	1124.84412	306.57468	673.61292	1116.45129	272.16104	640.24420	813.16174	49.93412	906.75812	1006.29388	-108.75205	963.94562	998.36395	211.95711	958.94763	1003.79376	-144.75493	569.61469	1074.73816	-81.41895	471.46515	1013.27350	-110.70220	420.81488	1037.24036	-2.50372	414.86307	905.43152	-57.96915	281.08109	704.53394	-60.35642	179.33128	737.58368	27.03948	176.05225	653.74451	1.20468	202.68965	770.17987	-41.76695	55.49247	764.73401	0.07244	106.57813	1022.99432	225.82059	580.38708	1062.46655	190.20058	448.25610	1074.04736	69.20619	439.55222	1072.18665	125.90398	254.50731	1007.57324	143.77222	63.38119	1019.68103	53.48680	82.47607	949.69574	94.94048	41.14793	1155.08069	106.86672	39.71650	1098.48022	73.65285	61.70183																																																																																																																															
387	3.217	1039.00464	65.96745	1567.07056	1143.18555	59.35353	1470.29578	930.09973	64.43699	1482.73071	1117.21167	43.94254	1329.21460	917.02649	47.33301	1371.43396	999.87286	-64.72750	1285.62512	1018.01251	148.81879	1292.04346	948.39020	-140.86842	1282.10950	968.71497	242.92340	1290.06018	868.03943	-38.72548	1294.58386	871.70508	143.39719	1293.35718	824.64117	-21.70206	1211.72180	967.86469	-193.31001	1139.87781	930.68097	-210.98340	979.26013	899.51855	-140.96188	966.22729	1003.48901	-200.98753	900.01074	971.25562	-227.47272	816.63617	1029.99976	-177.89191	766.39478	1027.78174	-217.46368	732.11261	1050.73193	-177.17892	712.22406	1056.35486	-159.18065	675.59680	1057.21216	-148.71916	634.45361	1041.20740	-230.15338	655.66376	1033.96375	-211.85316	604.58734	1014.22571	-192.12733	573.37054	961.14453	307.84698	1147.39478	924.93463	324.08105	999.60425	902.17169	246.40506	987.99249	1014.85760	301.78076	945.69824	1018.69794	337.94458	853.96045	1070.81726	278.05432	819.66449	1086.10657	325.28510	794.89148	1109.02625	279.98489	789.45190	1119.46082	255.63068	753.36072	1131.33020	243.53743	704.92212	1127.16199	320.03918	714.98822	1133.92896	306.88895	675.68329	1124.77405	272.67484	641.08630	818.38928	49.42068	907.77112	1011.78583	-108.11224	962.63855	1004.21515	212.20464	958.80811	1018.12415	-140.68666	570.05756	1086.20215	-81.04893	473.20419	1024.82300	-111.55144	421.70953	1049.32385	-1.15717	418.51749	916.66602	-57.40734	282.70361	715.08514	-59.57285	181.23427	749.10852	28.36350	176.52904	665.45801	3.00537	203.16954	782.73096	-43.90241	58.22402	776.92981	0.43202	107.98424	1027.12329	225.53993	580.73285	1064.47278	190.71730	448.83472	1075.39490	69.09988	438.73138	1072.58972	126.22942	254.31691	1007.37653	143.79224	63.14662	1019.98529	53.43365	82.81023	949.41235	95.04093	41.41255	1155.16418	106.90339	39.55861	1098.49597	73.68534	61.62727																																																																																																																															
388	3.225	1045.77014	65.31739	1568.09290	1149.14160	59.18132	1470.02820	936.63556	64.66559	1483.14075	1123.50232	44.32657	1329.30359	923.00836	45.63044	1372.38745	1005.32941	-64.43784	1285.88220	1022.99487	149.57983	1292.61389	954.14960	-140.62872	1282.29443	976.61322	242.28304	1291.38086	874.68750	-37.16756	1295.52966	879.59271	143.60191	1294.48328	830.46265	-21.16072	1212.43628	973.38165	-193.48193	1140.32751	933.49908	-211.50534	979.98737	901.14600	-142.30466	967.25037	1004.69989	-200.08809	899.56665	970.91638	-228.06625	816.80994	1028.10510	-177.83171	765.29535	1024.98743	-219.69714	731.81000	1047.57678	-177.08148	710.18427	1053.11475	-160.63403	674.95233	1053.47388	-150.68407	632.55841	1036.71814	-231.34077	654.32733	1028.85547	-212.73418	603.60565	1009.96710	-193.75780	572.67859	969.33539	308.55035	1148.16602	931.22888	325.70035	999.67035	908.19037	248.17186	988.74554	1023.24896	301.41296	947.15680	1027.01379	339.50446	855.11920	1080.07483	277.84134	820.73553	1094.56470	324.60254	796.06177	1116.37012	280.54779	790.99060	1128.04016	256.11566	755.57800	1139.23828	244.23376	705.73169	1136.30933	321.00223	716.58771	1142.33984	307.83743	677.49725	1133.87415	274.33618	643.38000	824.08191	50.80919	908.13800	1016.75336	-108.00806	963.20770	1009.88934	212.90628	958.74475	1026.81799	-140.49931	571.31848	1097.10059	-80.89256	474.88345	1035.81213	-111.17468	423.14572	1059.08069	-1.50927	419.09607	928.75397	-56.84331	283.56580	727.61804	-58.42959	181.39610	762.72467	28.96852	177.12613	677.43005	4.66525	203.15993	797.01434	-45.68011	60.13678	791.62598	-0.82106	109.87122	1031.31628	225.07140	580.89203	1064.75354	190.69000	448.87888	1076.68066	69.44030	437.87256	1072.63110	126.36028	254.25531	1007.40399	144.02742	63.29520	1019.40204	53.65878	82.42220	949.59863	94.93945	41.13998	1154.82043	107.12477	39.34003	1098.49597	73.68534	61.62727																																																																																																																															
389	3.233	1051.25989	64.76414	1568.53088	1155.90735	58.97762	1470.84424	942.74335	66.42490	1483.68738	1130.51306	43.31656	1329.62317	929.28845	46.46738	1373.80640	1010.98199	-64.85561	1286.39429	1030.68665	150.42999	1293.90857	959.38184	-140.03810	1282.36255	983.23163	242.91507	1292.45020	880.29279	-37.28964	1295.82349	885.26428	144.58521	1295.13855	836.26563	-19.32486	1213.09668	976.75214	-193.49687	1140.12720	936.61102	-210.39276	980.39154	902.91589	-143.03426	967.78644	1006.03046	-199.31519	899.43152	970.99329	-228.36563	817.19275	1026.91821	-178.25783	763.83325	1023.52295	-218.96288	730.81476	1045.07751	-177.80234	708.69916	1049.95679	-161.61954	672.95203	1049.48584	-151.94398	631.48047	1034.00439	-232.62686	653.37415	1025.08130	-214.30495	602.81708	1005.18793	-196.00327	572.10394	975.05457	308.89999	1148.75562	938.74719	327.18759	1001.23944	911.75201	248.65738	990.90527	1030.76746	302.37057	948.26611	1035.46790	339.70441	856.00568	1087.99561	277.94742	822.93866	1104.31628	326.00446	798.56311	1124.64368	281.41507	792.22144	1136.37988	255.72853	756.13416	1146.22266	245.03743	707.26465	1144.87793	321.28580	717.81488	1151.69641	307.42380	679.89325	1142.69958	276.69693	645.03583	828.52863	49.18279	908.85339	1021.79993	-107.65984	963.00128	1013.52972	211.53831	957.88153	1036.57043	-141.03911	572.72742	1108.15796	-80.47647	477.28104	1047.70593	-111.82618	424.69263	1069.73022	-0.76616	421.20908	943.01550	-58.60700	284.36713	740.11005	-57.63862	181.36746	774.32019	28.26761	176.61946	689.15710	5.24772	202.09082	811.72101	-45.75554	61.85480	805.20490	0.14767	110.53351	1035.17773	225.09113	580.82770	1065.80200	190.17072	449.03433	1078.05005	69.35110	437.82761	1072.87573	125.90421	254.02942	1007.54584	143.53703	63.23259	1019.42621	53.57207	82.39085	949.26849	94.86928	41.07855	1154.90845	107.09268	39.40574	1098.34985	73.88410	61.76451																																																																																																																															
